<svg width="163" height="54" viewBox="0 0 163 54" fill="none" xmlns="http://www.w3.org/2000/svg">
<path d="M2.58239 40V13.8182H12.4006C14.4119 13.8182 16.0994 14.1676 17.4631 14.8665C18.8352 15.5653 19.8707 16.5455 20.5696 17.8068C21.277 19.0597 21.6307 20.5213 21.6307 22.1918C21.6307 23.8707 21.2727 25.3281 20.5568 26.5639C19.8494 27.7912 18.8054 28.7415 17.4247 29.4148C16.044 30.0795 14.348 30.4119 12.3366 30.4119H5.34375V26.4744H11.6974C12.8736 26.4744 13.8366 26.3125 14.5866 25.9886C15.3366 25.6562 15.8906 25.1747 16.2486 24.544C16.6151 23.9048 16.7983 23.1207 16.7983 22.1918C16.7983 21.2628 16.6151 20.4702 16.2486 19.8139C15.8821 19.1491 15.3239 18.6463 14.5739 18.3054C13.8239 17.956 12.8565 17.7812 11.6719 17.7812H7.32528V40H2.58239ZM16.108 28.1364L22.5895 40H17.2969L10.9304 28.1364H16.108ZM18.0764 40V13.8182H27.8946C29.906 13.8182 31.5935 14.1676 32.9571 14.8665C34.3293 15.5653 35.3648 16.5455 36.0637 17.8068C36.7711 19.0597 37.1247 20.5213 37.1247 22.1918C37.1247 23.8707 36.7668 25.3281 36.0509 26.5639C35.3435 27.7912 34.2995 28.7415 32.9188 29.4148C31.5381 30.0795 29.8421 30.4119 27.8307 30.4119H20.8378V26.4744H27.1915C28.3676 26.4744 29.3307 26.3125 30.0807 25.9886C30.8307 25.6562 31.3847 25.1747 31.7426 24.544C32.1091 23.9048 32.2924 23.1207 32.2924 22.1918C32.2924 21.2628 32.1091 20.4702 31.7426 19.8139C31.3762 19.1491 30.8179 18.6463 30.0679 18.3054C29.3179 17.956 28.3506 17.7812 27.1659 17.7812H22.8193V40H18.0764ZM31.602 28.1364L38.0836 40H32.7909L26.4245 28.1364H31.602Z" fill="white"/>
<path d="M33.5705 40V13.8182H50.3432V17.794H38.3134V24.902H49.1927V28.8778H38.3134V40H33.5705Z" fill="#FC3314"/>
<path d="M59.5824 40V13.8182H76.6108V17.794H64.3253V24.902H75.7287V28.8778H64.3253V36.0241H76.7131V40H59.5824ZM85.4126 13.8182L91.1783 23.4062H91.3828L97.174 13.8182H102.582L94.5149 26.9091L102.71 40H97.2124L91.3828 30.4759H91.1783L85.3487 40H79.8771L88.1484 26.9091L79.9794 13.8182H85.4126ZM109.667 40H104.605L113.822 13.8182H119.677L128.907 40H123.845L116.852 19.1875H116.647L109.667 40ZM109.833 29.7344H123.64V33.544H109.833V29.7344ZM132.356 13.8182H138.16L145.933 32.7898H146.239L154.012 13.8182H159.816V40H155.265V22.0128H155.022L147.786 39.9233H144.386L137.15 21.9744H136.907V40H132.356V13.8182Z" fill="#FC3314"/>
</svg>
