<svg width="164" height="55" viewBox="0 0 164 55" fill="none" xmlns="http://www.w3.org/2000/svg">
<path d="M3.08239 40.8208V14.639H12.9006C14.9119 14.639 16.5994 14.9884 17.9631 15.6873C19.3352 16.3861 20.3707 17.3663 21.0696 18.6276C21.777 19.8805 22.1307 21.3421 22.1307 23.0126C22.1307 24.6915 21.7727 26.1489 21.0568 27.3847C20.3494 28.612 19.3054 29.5623 17.9247 30.2356C16.544 30.9003 14.848 31.2327 12.8366 31.2327H5.84375V27.2952H12.1974C13.3736 27.2952 14.3366 27.1333 15.0866 26.8094C15.8366 26.4771 16.3906 25.9955 16.7486 25.3648C17.1151 24.7256 17.2983 23.9415 17.2983 23.0126C17.2983 22.0836 17.1151 21.291 16.7486 20.6347C16.3821 19.9699 15.8239 19.4671 15.0739 19.1262C14.3239 18.7768 13.3565 18.6021 12.1719 18.6021H7.82528V40.8208H3.08239ZM16.608 28.9572L23.0895 40.8208H17.7969L11.4304 28.9572H16.608ZM18.5764 40.8208V14.639H28.3946C30.406 14.639 32.0935 14.9884 33.4571 15.6873C34.8293 16.3861 35.8648 17.3663 36.5637 18.6276C37.2711 19.8805 37.6247 21.3421 37.6247 23.0126C37.6247 24.6915 37.2668 26.1489 36.5509 27.3847C35.8435 28.612 34.7995 29.5623 33.4188 30.2356C32.0381 30.9003 30.3421 31.2327 28.3307 31.2327H21.3378V27.2952H27.6915C28.8676 27.2952 29.8307 27.1333 30.5807 26.8094C31.3307 26.4771 31.8847 25.9955 32.2426 25.3648C32.6091 24.7256 32.7924 23.9415 32.7924 23.0126C32.7924 22.0836 32.6091 21.291 32.2426 20.6347C31.8762 19.9699 31.3179 19.4671 30.5679 19.1262C29.8179 18.7768 28.8506 18.6021 27.6659 18.6021H23.3193V40.8208H18.5764ZM32.102 28.9572L38.5836 40.8208H33.2909L26.9245 28.9572H32.102Z" fill="white"/>
<path d="M34.0705 40.8208V14.639H50.8432V18.6148H38.8134V25.7228H49.6927V29.6986H38.8134V40.8208H34.0705Z" fill="#FC3314"/>
<path d="M60.0824 40.8208V14.639H77.1108V18.6148H64.8253V25.7228H76.2287V29.6986H64.8253V36.8449H77.2131V40.8208H60.0824ZM85.9126 14.639L91.6783 24.2271H91.8828L97.674 14.639H103.082L95.0149 27.7299L103.21 40.8208H97.7124L91.8828 31.2967H91.6783L85.8487 40.8208H80.3771L88.6484 27.7299L80.4794 14.639H85.9126ZM110.167 40.8208H105.105L114.322 14.639H120.177L129.407 40.8208H124.345L117.352 20.0083H117.147L110.167 40.8208ZM110.333 30.5552H124.14V34.3648H110.333V30.5552ZM132.856 14.639H138.66L146.433 33.6106H146.739L154.512 14.639H160.316V40.8208H155.765V22.8336H155.522L148.286 40.7441H144.886L137.65 22.7952H137.407V40.8208H132.856V14.639Z" fill="#FC3314"/>
</svg>
